<?xml version="1.0" encoding="utf-8"?>
<!-- Generator: Adobe Illustrator 23.0.3, SVG Export Plug-In . SVG Version: 6.00 Build 0)  -->
<svg width="32px" height="32px" version="1.1" id="Layer_1" xmlns="http://www.w3.org/2000/svg" xmlns:xlink="http://www.w3.org/1999/xlink" x="0px" y="0px"
	 viewBox="0 0 24 24" style="enable-background:new 0 0 24 24;" xml:space="preserve">

<path fill="#000" d="M8.8,14.5h-4c-0.3,0-0.5,0.2-0.5,0.5c0,0.3,0.2,0.5,0.5,0.5h4c0.3,0,0.5-0.2,0.5-0.5
	C9.3,14.7,9.1,14.5,8.8,14.5z M7.3,12h-4c-0.3,0-0.5,0.2-0.5,0.5C2.8,12.8,3,13,3.3,13h4c0.3,0,0.5-0.2,0.5-0.5
	C7.8,12.2,7.6,12,7.3,12z M5.8,9.5h-4c-0.3,0-0.5,0.2-0.5,0.5s0.2,0.5,0.5,0.5h4c0.3,0,0.5-0.2,0.5-0.5S6.1,9.5,5.8,9.5z M21.2,8.2
	C21,8,20.7,7.9,20.5,8.1l-5.3,4c-0.5,0.4-1.3,0.4-1.8,0L8,8.1C7.8,7.9,7.5,7.9,7.3,8.2C7.2,8.4,7.2,8.7,7.4,8.9l5.3,4
	c0.4,0.3,1,0.5,1.5,0.5s1.1-0.1,1.5-0.5l5.3-4C21.3,8.7,21.3,8.4,21.2,8.2z M21.8,6h-16C5.5,6,5.3,6.2,5.3,6.5C5.3,6.8,5.5,7,5.8,7
	h16c0.3,0,0.5,0.2,0.5,0.5v10c0,0.3-0.2,0.5-0.5,0.5h-16c-0.3,0-0.5,0.2-0.5,0.5c0,0.3,0.2,0.5,0.5,0.5h16c0.8,0,1.5-0.6,1.5-1.5
	v-10C23.2,6.6,22.6,6,21.8,6z M21.1,16.1l-3-3c-0.2-0.2-0.5-0.2-0.7,0c-0.2,0.2-0.2,0.5,0,0.7l3,3c0.1,0.1,0.2,0.1,0.3,0.1
	s0.2-0.1,0.4-0.1C21.3,16.6,21.3,16.3,21.1,16.1z"/>
</svg>
